<?xml version="1.0" standalone="no"?>
<!DOCTYPE svg PUBLIC "-//W3C//DTD SVG 20010904//EN"
 "http://www.w3.org/TR/2001/REC-SVG-20010904/DTD/svg10.dtd">
<svg version="1.0" xmlns="http://www.w3.org/2000/svg"
 width="256.000000pt" height="256.000000pt" viewBox="0 0 256.000000 256.000000"
 preserveAspectRatio="xMidYMid meet">

<g transform="translate(0.000000,256.000000) scale(0.100000,-0.100000)"
fill="#000000" stroke="none">
<path d="M1130 2544 c-390 -52 -719 -259 -927 -583 -99 -153 -163 -337 -190
-541 -13 -106 -14 -143 -4 -241 48 -467 306 -841 716 -1040 466 -226 1011
-151 1402 193 242 212 389 507 424 847 26 253 -50 558 -194 782 -212 330 -539
532 -942 584 -139 17 -146 17 -285 -1z m346 -119 c242 -43 453 -156 630 -337
105 -108 158 -183 219 -311 239 -499 91 -1095 -355 -1429 -129 -96 -254 -156
-420 -200 -113 -29 -339 -36 -467 -13 -376 67 -682 301 -848 647 -153 319
-153 676 0 995 172 360 489 592 895 656 65 11 266 6 346 -8z"/>
<path d="M965 2197 c-95 -32 -166 -95 -191 -170 -21 -63 -15 -155 15 -222 12
-26 20 -50 18 -52 -2 -2 -26 6 -53 18 -66 30 -171 37 -227 15 -171 -65 -233
-322 -111 -464 l36 -42 -36 -40 c-69 -76 -85 -219 -35 -324 12 -26 43 -66 69
-89 51 -46 103 -67 167 -67 45 0 137 25 171 46 27 18 28 9 2 -49 -27 -61 -36
-155 -20 -212 17 -61 78 -128 147 -162 46 -22 71 -27 127 -27 85 -1 132 14
192 60 l45 35 36 -32 c55 -48 98 -62 188 -63 99 0 166 27 223 88 78 85 91 186
40 312 l-24 60 60 -24 c83 -34 163 -40 223 -17 177 68 241 319 117 463 l-36
42 36 40 c71 79 85 223 32 328 -29 58 -103 126 -153 143 -50 16 -158 6 -217
-20 -27 -12 -50 -20 -52 -19 -1 2 8 35 22 73 41 122 29 205 -43 285 -61 68
-126 95 -228 94 -90 0 -132 -15 -188 -64 l-37 -32 -37 32 c-20 18 -52 39 -71
47 -49 20 -159 26 -207 10z m177 -125 c15 -9 41 -36 59 -59 63 -89 91 -89 153
-4 44 63 85 84 156 84 63 0 106 -19 143 -62 48 -58 44 -120 -16 -236 -23 -44
-72 -102 -188 -217 -86 -87 -162 -158 -168 -158 -22 0 -292 274 -336 340 -53
80 -80 157 -71 205 7 37 45 88 80 107 56 30 136 30 188 0z m-455 -398 c83 -28
174 -98 316 -243 75 -77 137 -145 137 -152 0 -6 -71 -82 -158 -169 -137 -138
-167 -162 -235 -195 -123 -61 -190 -53 -251 28 -15 20 -21 47 -24 95 -4 84 15
123 84 170 27 19 53 40 57 49 16 28 -3 60 -56 95 -63 42 -87 85 -87 156 0 84
32 140 95 168 40 18 65 17 122 -2z m1332 -11 c54 -41 66 -69 66 -151 0 -89
-17 -120 -90 -167 -74 -46 -72 -85 5 -133 74 -46 92 -81 88 -169 -4 -77 -18
-107 -72 -147 -69 -52 -207 -2 -353 126 -80 70 -243 244 -243 259 0 12 165
188 236 251 161 143 286 188 363 131z m-635 -612 c178 -164 267 -280 296 -389
14 -54 6 -93 -27 -133 -37 -43 -80 -62 -143 -62 -71 0 -112 21 -156 84 -20 27
-45 54 -55 60 -27 14 -50 -1 -93 -60 -54 -76 -124 -103 -207 -81 -50 14 -114
72 -125 114 -18 73 37 189 150 316 63 71 243 240 255 240 5 0 52 -40 105 -89z"/>
</g>
</svg>
