<?xml version="1.0" standalone="no"?>
<!DOCTYPE svg PUBLIC "-//W3C//DTD SVG 20010904//EN"
 "http://www.w3.org/TR/2001/REC-SVG-20010904/DTD/svg10.dtd">
<svg version="1.0" xmlns="http://www.w3.org/2000/svg"
 width="512.000000pt" height="512.000000pt" viewBox="0 0 512.000000 512.000000"
 preserveAspectRatio="xMidYMid meet">

<g transform="translate(0.000000,512.000000) scale(0.100000,-0.100000)"
fill="#000000" stroke="none">
<path d="M2372 5110 c-592 -46 -1150 -294 -1577 -702 -421 -402 -686 -920
-771 -1513 -24 -165 -24 -505 0 -670 124 -860 636 -1573 1401 -1950 325 -161
642 -245 991 -263 451 -24 867 60 1269 257 260 128 476 282 681 486 566 563
836 1361 728 2150 -133 970 -810 1779 -1742 2085 -302 99 -668 143 -980 120z
m475 -245 c263 -35 494 -104 728 -219 730 -358 1213 -1053 1296 -1861 16 -160
7 -444 -20 -600 -110 -650 -479 -1213 -1031 -1575 -186 -122 -466 -245 -684
-301 -181 -47 -286 -60 -511 -66 -175 -4 -248 -2 -355 12 -312 39 -627 148
-895 307 -1038 619 -1430 1929 -901 3013 345 706 1007 1183 1791 1289 140 19
437 19 582 1z"/>
<path d="M1930 4401 c-213 -57 -374 -224 -411 -424 -22 -117 13 -292 88 -440
l24 -48 -48 24 c-148 75 -316 109 -435 89 -111 -19 -191 -63 -278 -151 -121
-123 -170 -246 -170 -433 0 -173 40 -285 141 -393 l59 -63 -52 -54 c-61 -62
-111 -150 -133 -233 -19 -76 -19 -250 0 -333 44 -187 183 -344 356 -403 130
-44 331 -19 489 61 33 17 62 30 65 30 3 0 -5 -21 -19 -47 -65 -131 -104 -299
-92 -405 25 -219 197 -403 431 -463 69 -18 221 -20 297 -4 82 17 187 72 256
134 l63 57 62 -60 c107 -102 215 -142 388 -142 246 0 447 116 545 314 l39 80
0 130 c0 144 -17 221 -76 340 -16 32 -28 61 -25 63 2 2 31 -9 65 -26 142 -72
343 -103 461 -71 134 36 262 142 331 275 49 94 69 180 69 301 0 166 -43 283
-143 390 l-57 62 52 54 c103 105 148 228 148 407 0 183 -52 313 -175 437 -121
122 -262 170 -428 146 -93 -13 -195 -45 -274 -86 -29 -14 -53 -24 -53 -21 0 3
13 32 30 65 50 99 81 222 81 325 1 107 -11 157 -58 247 -68 130 -209 234 -371
273 -57 14 -97 17 -190 12 -172 -8 -253 -40 -364 -145 l-57 -54 -56 55 c-67
66 -149 111 -236 132 -88 20 -256 19 -339 -4z m320 -238 c55 -25 97 -65 168
-163 69 -94 88 -110 135 -110 56 0 91 23 125 83 46 82 124 161 184 188 45 20
70 24 158 24 94 0 111 -3 165 -28 269 -126 243 -410 -73 -787 -130 -155 -530
-534 -557 -528 -19 4 -314 279 -430 399 -189 197 -297 350 -346 492 -52 148
-36 263 49 350 40 42 110 82 169 97 62 15 202 6 253 -17z m-863 -822 c142 -49
295 -157 492 -346 121 -117 395 -411 399 -430 4 -16 -267 -314 -405 -446 -271
-260 -496 -382 -673 -366 -66 6 -106 24 -161 74 -131 119 -143 370 -25 510 15
18 66 58 112 89 93 62 104 76 104 128 0 59 -20 85 -107 142 -146 97 -186 167
-187 329 -1 89 2 106 27 160 79 170 227 225 424 156z m2620 3 c124 -61 196
-208 179 -366 -12 -123 -68 -201 -204 -291 -91 -60 -113 -99 -91 -162 12 -33
28 -49 92 -91 143 -93 192 -163 204 -286 19 -207 -97 -380 -265 -395 -186 -17
-408 108 -706 397 -137 133 -376 395 -376 412 0 32 436 478 581 594 238 190
448 258 586 188z m-1340 -1151 c164 -144 434 -422 515 -530 123 -164 188 -317
188 -443 0 -107 -70 -203 -189 -259 -50 -23 -68 -26 -161 -26 -89 1 -112 4
-152 24 -69 33 -122 85 -181 176 -45 69 -58 82 -93 93 -67 21 -101 1 -164 -96
-59 -92 -113 -145 -179 -175 -37 -18 -65 -22 -151 -22 -93 0 -112 3 -161 26
-260 122 -251 390 23 736 32 41 107 124 166 185 130 135 413 397 429 398 6 0
55 -39 110 -87z"/>
</g>
</svg>
